<svg width="64" height="64" viewBox="0 0 64 64" fill="none" xmlns="http://www.w3.org/2000/svg">
  <rect x="2" y="2" width="60" height="60" rx="18" fill="#0A0C0F"/>
  <rect x="2" y="2" width="60" height="60" rx="18" stroke="#334137" stroke-width="2"/>
  <path d="M30.5 18.5C28.1 14.4 22 14.1 19.9 18.6C15.3 18.8 13 23.5 15.4 27.5C11.8 30.2 12.8 36.1 16.8 37.8C15.2 43.2 19.2 48.6 24.5 47.1C26.9 50.8 30.5 48.4 30.5 44V18.5Z" stroke="#F3F6F2" stroke-width="3.5" stroke-linecap="round" stroke-linejoin="round"/>
  <path d="M33.5 18.5C35.9 14.4 42 14.1 44.1 18.6C48.7 18.8 51 23.5 48.6 27.5C52.2 30.2 51.2 36.1 47.2 37.8C48.8 43.2 44.8 48.6 39.5 47.1C37.1 50.8 33.5 48.4 33.5 44V18.5Z" stroke="#F3F6F2" stroke-width="3.5" stroke-linecap="round" stroke-linejoin="round"/>
  <path d="M19.2 26.2C22.4 23.9 27.1 25 28 28.7M17.7 36.1C21.9 33.5 26.2 35 28.1 38.5" stroke="#B8FF75" stroke-width="2.8" stroke-linecap="round"/>
  <path d="M44.8 26.2C41.6 23.9 36.9 25 36 28.7M46.3 36.1C42.1 33.5 37.8 35 35.9 38.5" stroke="#B8FF75" stroke-width="2.8" stroke-linecap="round"/>
</svg>
